Coordinates
version=1
nRows=5
nColumns=53
inDegrees=yes

Units are S.I. units (second, meters, Newtons, ...)
If the header above contains a line with 'inDegrees', this indicates whether rotational values are in degrees (yes) or radians (no).

endheader
time	pelvis_tilt	pelvis_list	pelvis_rotation	pelvis_tx	pelvis_ty	pelvis_tz	hip_flexion_r	hip_adduction_r	hip_rotation_r	knee_angle_r	knee_flexion_r_beta	ankle_angle_r	subtalar_angle_r	mtp_flexion_r	hip_flexion_l	hip_adduction_l	hip_int_rotation_l	knee_flexion_l	knee_flexion_l_beta	ankle_dorsiflexion_l	subtalar_angle_l	mtp_flexion_l	lumbar_extension	lumbar_bending	lumbar_rotation	thoracic_extension	thoracic_bending	thoracic_rotation	neck_extension	neck_bending	neck_rotation	head_extension	head_tilting	head_rotation	stnclv_protraction_r	stnclv_elevation_r	arm_flex_r	arm_add_r	arm_rot_r	elbow_flex_r	pro_sup_r	wrist_flex_r	wrist_dev_r	stnclv_protraction_l	stnclv_elevation_l	arm_flex_l	arm_add_l	arm_rot_l	elbow_flex_l	pro_sup_l	wrist_flex_l	wrist_dev_l
      2.23750000	     -2.97968965	     19.47717546	    -91.03756207	      1.19267686	      0.95359672	     -1.01547291	     62.92150995	    -18.14491852	     -5.64557229	     63.93119916	      1.11580992	     15.53422767	      4.75298896	      0.00000000	     65.09171191	    -19.97525282	      0.64036914	     65.34156530	      1.14042545	     15.52599453	      5.24625941	      0.00000000	    -14.70127954	      3.02031829	      1.16459922	     -3.06126993	     -2.44747548	      1.16459922	     27.38869900	      4.46540777	     -0.33566328	      9.29099239	     -3.53382483	     -0.33566328	    -34.46825849	     16.06049731	    118.02080356	    -25.94681223	      1.52660676	     42.93283073	     87.96607771	     25.93710740	    -17.01755846	    -30.98616096	     17.44885066	    118.91560922	    -23.84532997	      2.50094267	     49.75320684	     88.36732348	     24.36781497	     -4.42954829
      2.24167000	     -2.96464737	     19.95602446	    -91.03815066	      1.19255113	      0.94939150	     -1.01666389	     63.98368823	    -18.20216612	     -5.41280453	     64.65507997	      1.12844402	     15.66093126	      4.82751115	      0.00000000	     66.17329961	    -19.97225660	      0.90274460	     66.06964947	      1.15313292	     15.64942977	      5.30609550	      0.00000000	    -14.85849259	      2.93532441	      1.10865844	     -2.39358975	     -2.34603793	      1.10865844	     27.24180259	      4.44959221	     -0.24355784	      9.34502175	     -3.53486413	     -0.24355784	    -34.69618050	     16.31145912	    117.93653059	    -25.83327604	      0.77977749	     43.07980927	     88.02428987	     25.34318212	    -17.11835749	    -31.39499138	     17.59200222	    118.79318624	    -23.85347676	      2.07663418	     49.90470059	     88.38543601	     24.28331108	     -4.51483505
      2.24583000	     -2.97348306	     19.89691260	    -91.04547507	      1.19253985	      0.94658301	     -1.01755751	     64.34210905	    -18.22512977	     -5.22360398	     65.21691024	      1.13824981	     15.79064961	      4.79093052	      0.00000000	     66.54714127	    -19.96840146	      1.13872415	     66.63628534	      1.16302258	     15.77753052	      5.27186519	      0.00000000	    -15.35014297	      2.91833556	      1.13903310	     -2.25467177	     -2.34039835	      1.13903310	     27.44803261	      4.44551461	     -0.24383523	      9.55136840	     -3.53927985	     -0.24383523	    -34.85250523	     16.10047814	    118.29684519	    -25.92316717	      0.52778090	     43.28287161	     87.99712241	     25.27472225	    -17.15345857	    -31.51786766	     17.43573334	    119.13589335	    -23.91058449	      1.87945644	     50.09730599	     88.36962189	     24.26071937	     -4.54357818
      2.25000000	     -2.98481259	     19.86977551	    -91.05146338	      1.19250453	      0.94351418	     -1.01848016	     64.77907005	    -18.26900761	     -5.05040869	     65.85294476	      1.14935071	     15.94076134	      4.76262695	      0.00000000	     67.00629786	    -19.99642638	      1.34718390	     67.28497918	      1.17434442	     15.92906249	      5.24522053	      0.00000000	    -15.85233555	      2.90462667	      1.15864765	     -2.05319418	     -2.33343069	      1.15864765	     27.66140809	      4.43135208	     -0.24432479	      9.76917588	     -3.55068063	     -0.24432479	    -35.08891464	     15.96837325	    118.63374461	    -25.98087246	      0.27636626	     43.38376860	     87.97814013	     25.19614989	    -17.17639768	    -31.74470086	     17.33280985	    119.45182230	    -23.95634283	      1.68770806	     50.20777807	     88.36395098	     24.23607751	     -4.56077540
      2.25417000	     -2.99608249	     19.90147449	    -91.05988019	      1.19244782	      0.94026191	     -1.01932689	     65.27534085	    -18.31812209	     -4.88789350	     66.49633948	      1.16058006	     16.09525882	      4.75454148	      0.00000000	     67.53311838	    -20.04356263	      1.54044742	     67.94467791	      1.18585834	     16.08719191	      5.23809716	      0.00000000	    -16.31488099	      2.89128339	      1.16784700	     -1.77998162	     -2.32118991	      1.16784700	     27.81892112	      4.41309598	     -0.23887682	      9.95396784	     -3.56194901	     -0.23887682	    -35.34883553	     15.87781791	    118.92937567	    -25.99115793	      0.00192431	     43.40932563	     87.96746408	     25.09739086	    -17.19571877	    -32.01784178	     17.25386040	    119.71391136	    -23.97815548	      1.48493275	     50.25230986	     88.36369934	     24.20700662	     -4.57434742
